<svg xmlns="http://www.w3.org/2000/svg" viewBox="0 0 152.3 41.7"><linearGradient id="a" gradientUnits="userSpaceOnUse" x1="29.893" y1="41.691" x2="29.893"><stop offset="0" stop-color="#1e284b"/><stop offset=".149" stop-color="#212c51"/><stop offset=".384" stop-color="#273a63"/><stop offset=".676" stop-color="#315487"/><stop offset="1" stop-color="#4080c2"/></linearGradient><path fill="url(#a)" d="M28 25.9l3.5-6.1L20.3 0v33s.1 2.2 1.6 3.6c1.4 1.3 2.9 2.3 9.1 3.5 6.2 1.2 8.4 1.6 8.4 1.6L36 34s-2.8-.2-5-1-4.1-1.4-5.8-3.5c-1.7-2.1-1.9-7.1-2.2-10.4-.3-3.3-.1-2.6-.1-2.6l5.1 9.4z"/><linearGradient id="b" gradientUnits="userSpaceOnUse" x1="9.558" y1="41.691" x2="9.558"><stop offset="0" stop-color="#1e284b"/><stop offset=".149" stop-color="#212c51"/><stop offset=".384" stop-color="#273a63"/><stop offset=".676" stop-color="#315487"/><stop offset="1" stop-color="#4080c2"/></linearGradient><path fill="url(#b)" d="M11.4 25.9l-3.5-6.1L19.1 0v33s-.1 2.2-1.6 3.6c-1.4 1.3-2.9 2.3-9.1 3.5C2.2 41.3 0 41.7 0 41.7L3.5 34s2.8-.2 5-1 4.1-1.4 5.8-3.5c1.7-2.1 1.9-7.1 2.2-10.4.3-3.3.2-2.6.2-2.6l-5.3 9.4z"/><g fill="#1E284B"><path d="M137.8 21.9l-1.1 3h2.1l-1-3zm-2.4 6.5h-1.2l3.4-9.1h1.2l3.3 9.1H140l-.9-2.5h-2.8l-.9 2.5zM42.7 28.4v-7.1l-2.8 4.9-2.8-4.9v7.1H36v-9.2h2.1l2.3 4 2.4-4h1.9v9.2zM51.1 23.1h2.7v.9h-2.7v3.4h3.7v1h-5.6v-9.2h5.6v1h-3.7zM61.9 20.2v8.2h-2v-8.2h-2.6v-1h7.2v1zM70.5 20.2h-.7v3.1h.7c.8 0 1.5-.8 1.5-1.6s-.6-1.5-1.5-1.5m-2.6 8.2v-9.1h2.7c1.7 0 3.6.8 3.6 2.4 0 1.2-1 2-1.8 2.2l2.5 4.5h-2.3l-2.1-4.1h-.7v4.2h-1.9zM79.5 23.8c0 1.7.3 3.9 2 3.9s2-2.2 2-3.9c0-1.7-.3-3.9-2-3.9-1.6 0-2 2.2-2 3.9m2.1 4.8c-2.6 0-4.3-2.3-4.3-4.8S79 19 81.6 19c2.6 0 4.3 2.3 4.3 4.8s-1.8 4.8-4.3 4.8M91.4 23.7h1c.9 0 1.7-.8 1.7-1.8 0-.9-.7-1.8-1.7-1.8h-1v3.6zm0 4.7h-2v-9.2h3c1.8 0 3.8.9 3.8 2.7 0 1.8-2 2.7-3.8 2.7h-1v3.8zM101.1 23.8c0 1.7.3 3.9 2 3.9s2-2.2 2-3.9c0-1.7-.3-3.9-2-3.9s-2 2.2-2 3.9m2.1 4.8c-2.6 0-4.3-2.3-4.3-4.8s1.7-4.8 4.3-4.8c2.6 0 4.3 2.3 4.3 4.8s-1.8 4.8-4.3 4.8M111.1 19.2h1.9v8.2H116.6v1h-5.5v-8.2zM121.9 19.2v9.2H120v-9.2zM130 20.2v8.2h-1.9v-8.2h-2.6v-1h7.1v1zM152.3 19.2v9.5l-5.5-7v6.7h-1.1v-9.2h1.6l3.9 4.7v-4.7z"/></g></svg>